<svg id="Capa_1" enable-background="new 0 0 512 512" height="512" viewBox="0 0 512 512" width="512" xmlns="http://www.w3.org/2000/svg"><g><path d="m464.419 392.791h-8.532v-145.613c0-16.992-6.617-32.966-18.632-44.981l-3.192-3.192c4.359-8.801 2.898-19.775-4.422-27.095l-16.032-16.033c-9.176-9.174-24.104-9.174-33.28 0-9.174 9.175-9.174 24.104 0 33.28l16.032 16.033c4.588 4.587 10.614 6.881 16.64 6.881 3.589 0 7.17-.833 10.455-2.46l3.192 3.192c9.182 9.182 14.238 21.39 14.238 34.375v145.612h-33.097v-101.356c0-19.772-11.908-37.179-30.336-44.346l-56.8-22.089 26.081-11.177c11.841-5.075 17.306-18.562 12.439-30.705-3.42-8.534-7.498-23.678-7.498-47.361v-56.111c.002-43.916-35.726-79.645-79.643-79.645h-32.064c-43.917 0-79.645 35.729-79.645 79.645v56.111c0 23.683-4.077 38.827-7.498 47.361-4.866 12.143.598 25.63 12.439 30.705l26.081 11.177-56.8 22.089c-18.428 7.167-30.336 24.573-30.336 44.346v101.356h-56.628c-8.556 0-15.516 6.96-15.516 15.516v16.032c0 8.556 6.96 15.516 15.516 15.516h24.564v64.646c0 4.142 3.358 7.5 7.5 7.5s7.5-3.358 7.5-7.5v-64.645h337.71v64.645c0 4.142 3.358 7.5 7.5 7.5s7.5-3.358 7.5-7.5v-64.645h24.564c8.556 0 15.516-6.96 15.516-15.516v-16.032c.001-8.556-6.96-15.516-15.516-15.516zm-57.45-198.207-16.032-16.032c-3.327-3.327-3.327-8.74 0-12.066 1.664-1.664 3.848-2.495 6.034-2.495 2.185 0 4.37.832 6.033 2.495l16.032 16.032c3.327 3.327 3.327 8.74 0 12.067-3.328 3.325-8.741 3.326-12.067-.001zm-198.553 39.872c9.114-3.544 15.003-12.153 15.003-21.933v-20.149c9.953 4.482 20.976 6.997 32.581 6.997 11.274 0 22.394-2.422 32.581-6.982v20.134c0 9.779 5.889 18.388 15.003 21.933l24.053 9.354-61.158 50.039c-6.073 4.968-14.887 4.968-20.958 0l-61.158-50.039zm132.41-34.421-36.607 15.688c-.401-.997-.639-2.072-.639-3.2v-28.93c.829-.618 1.65-1.247 2.455-1.898 13.891-11.229 23.706-26.954 27.636-44.279.917-4.04-1.615-8.057-5.654-8.974-4.041-.918-8.057 1.615-8.974 5.654-3.188 14.053-11.157 26.814-22.438 35.933-11.605 9.383-25.647 14.342-40.605 14.342-35.646 0-64.645-29-64.645-64.645v-4.46c53.038-10.764 81.466-29.121 96.364-43.653 7.5 9.26 24.352 27.194 48.958 37.244v26.899c0 20.934 2.885 38.746 8.574 52.941 1.811 4.518-.133 9.498-4.425 11.338zm-100.858-185.035h32.064c35.646 0 64.645 29 64.645 64.645v12.771c-20.465-10.08-34.199-26.193-38.987-32.411 3.949-5.658 5.319-9.496 5.505-10.053 1.31-3.93-.798-8.222-4.728-9.532-3.93-1.311-8.161.769-9.471 4.698-.04.108-4.122 10.984-20.884 23.604-25.979 19.558-63.322 29.353-92.79 34.241v-23.318c.001-35.645 29-64.645 64.646-64.645zm-73.219 173.697c5.689-14.195 8.574-32.007 8.574-52.941v-17.598c.347-.055.687-.112 1.032-.168v1.736c0 26.094 12.614 49.296 32.064 63.832v28.965c0 1.128-.238 2.203-.639 3.2l-36.607-15.688c-4.291-1.84-6.235-6.82-4.424-11.338zm298.187 235.642c0 .285-.231.516-.516.516h-416.839c-.285 0-.516-.231-.516-.516v-16.032c0-.285.231-.516.516-.516h80.161c4.142 0 7.5-3.358 7.5-7.5s-3.358-7.5-7.5-7.5h-8.532v-101.357c0-13.539 8.154-25.458 20.772-30.365l28.324-11.015 67.716 55.404c5.788 4.735 12.883 7.104 19.978 7.104s14.19-2.368 19.978-7.104l67.716-55.404 28.324 11.015c12.619 4.907 20.772 16.826 20.772 30.365v101.356h-232.983c-4.142 0-7.5 3.358-7.5 7.5s3.358 7.5 7.5 7.5h304.613c.285 0 .516.231.516.516z"/><path d="m301.407 347.78-2.053 11.97c-.885 5.16 1.197 10.277 5.433 13.354s9.744 3.475 14.379 1.039l10.749-5.652 10.75 5.652c2.016 1.06 4.196 1.583 6.367 1.583 2.819 0 5.62-.884 8.013-2.623 4.235-3.077 6.317-8.194 5.432-13.354l-2.053-11.97 8.696-8.478c3.749-3.654 5.073-9.017 3.456-13.996-1.618-4.979-5.841-8.54-11.023-9.293l-12.018-1.746-5.375-10.891c-2.317-4.695-7.009-7.611-12.244-7.611s-9.927 2.916-12.244 7.611l-5.375 10.891-12.019 1.746c-5.181.753-9.404 4.314-11.022 9.293-1.617 4.979-.293 10.342 3.455 13.996zm16.947-19.235c2.443-.354 4.555-1.889 5.647-4.103l5.913-11.98 5.913 11.98c1.093 2.213 3.205 3.748 5.647 4.103l13.221 1.921-9.567 9.326c-1.768 1.723-2.574 4.206-2.157 6.638l2.258 13.168-11.825-6.217c-2.186-1.148-4.795-1.149-6.98 0l-11.825 6.217 2.259-13.167c.417-2.433-.389-4.916-2.157-6.639l-9.567-9.326z"/></g></svg>