<svg id="Capa_1" enable-background="new 0 0 512.013 512.013" height="512" viewBox="0 0 512.013 512.013" width="512" xmlns="http://www.w3.org/2000/svg"><g id="XMLID_385_"><path id="XMLID_390_" d="m427.245 127.453c-2.713-10.127-9.208-18.591-18.288-23.833s-19.656-6.635-29.784-3.921c-.244.065-.482.143-.723.213-1.829-11.873-8.813-22.849-20.002-29.309-10.389-5.998-22.339-6.917-32.957-3.533-1.931-11.753-8.911-22.585-20.006-28.991-11.054-6.382-23.871-7.032-34.986-2.88-2.303-11.927-9.552-22.834-20.872-29.37-10.032-5.793-21.72-7.331-32.91-4.333s-20.542 10.175-26.334 20.207l-31.748 54.989c-14.565.352-28.64 7.813-36.76 20.722l-25.761 40.953c-16.437 26.131-16.952 58.909-1.343 85.543l54.727 93.385v184.719c0 5.522 4.477 10 10 10s10-4.478 10-10v-187.433c0-1.777-.474-3.522-1.373-5.056l-56.1-95.728c-11.82-20.17-11.431-44.993 1.018-64.781l25.761-40.953c6.403-10.179 19.534-14.212 30.544-9.383 12.032 5.278 26.233 11.502 38.635 16.922 11.809 5.161 17.208 19.043 12.035 30.945-5.019 11.549-18.139 17.005-29.867 12.424l-27.015-10.552c-5.143-2.011-10.944.531-12.953 5.676-2.01 5.145.532 10.943 5.676 12.953l27.015 10.552c9.608 3.754 19.717 3.876 28.819 1.004 2.594 2.632 5.533 4.932 8.742 6.785 6.461 3.73 13.522 5.503 20.496 5.502 6.351 0 12.624-1.481 18.305-4.282 3.045 9.946 9.63 18.245 18.684 23.472 6.318 3.648 13.329 5.511 20.434 5.511 3.561 0 7.146-.468 10.678-1.415 1.467-.393 2.897-.87 4.293-1.412 2.48 9.992 8.844 19.007 18.443 24.549 6.048 3.492 12.76 5.276 19.561 5.275 2.733 0 5.48-.302 8.205-.883-9.627 28.469-25.658 54.352-47.108 75.803-1.875 1.876-2.929 4.419-2.929 7.071v52.556c0 5.522 4.477 10 10 10s10-4.478 10-10v-48.471c28.171-29.271 47.521-65.888 55.887-105.717l37.938-65.711c5.243-9.08 6.636-19.657 3.923-29.784zm-205.274-26.984c-1.88-1.201-31.179-14.223-42.813-19.326l28.544-49.44c3.121-5.406 8.161-9.273 14.19-10.889 6.028-1.616 12.327-.786 17.733 2.335s9.273 8.161 10.889 14.19.787 12.327-2.334 17.733zm37.329 59.865c-5.825 10.091-18.773 13.56-28.864 7.734-.28-.162-.532-.354-.802-.526 3.572-3.672 6.56-8.037 8.727-13.023 5.669-13.042 4.447-27.38-2.05-38.886l30.311-52.5c2.822-4.888 7.378-8.384 12.831-9.845 5.452-1.461 11.146-.711 16.034 2.111 10.09 5.826 13.56 18.774 7.734 28.864zm57.307 24.74c-2.805 4.858-7.333 8.333-12.751 9.785-5.419 1.449-11.078.707-15.936-2.098s-8.333-7.333-9.785-12.751-.707-11.077 2.098-15.935l39.528-68.464c3.886-6.729 10.959-10.495 18.222-10.495 3.56 0 7.166.905 10.464 2.809 10.028 5.79 13.477 18.659 7.687 28.687zm89.396-37.837-37.938 65.711c-2.571 4.453-6.722 7.638-11.689 8.969-4.965 1.332-10.154.648-14.607-1.923-9.192-5.307-12.354-17.104-7.046-26.296l37.939-65.711c3.562-6.169 10.045-9.622 16.704-9.622 3.263 0 6.569.83 9.592 2.575 9.191 5.308 12.352 17.104 7.045 26.297z"/><path id="XMLID_908_" d="m319.498 457.136c-5.523 0-10 4.478-10 10v34.877c0 5.522 4.477 10 10 10s10-4.478 10-10v-34.877c0-5.522-4.478-10-10-10z"/><path id="XMLID_910_" d="m319.444 432.133c2.63 0 5.21-1.061 7.07-2.931 1.86-1.859 2.93-4.43 2.93-7.069 0-2.63-1.07-5.21-2.93-7.07s-4.44-2.93-7.07-2.93c-2.64 0-5.22 1.069-7.08 2.93s-2.92 4.44-2.92 7.07c0 2.64 1.06 5.21 2.92 7.069 1.86 1.871 4.44 2.931 7.08 2.931z"/><path id="XMLID_914_" d="m239.498 228.392c-31.051 0-56.313 25.164-56.313 56.094 0 27.53 20.019 50.474 46.313 55.19v21.267h-6.841c-5.523 0-10 4.478-10 10s4.477 10 10 10h6.841v11.449c0 5.522 4.477 10 10 10s10-4.478 10-10v-11.449h6.841c5.523 0 10-4.478 10-10s-4.477-10-10-10h-6.841v-21.267c26.295-4.716 46.313-27.66 46.313-55.19 0-30.93-25.262-56.094-56.313-56.094zm0 92.188c-20.023 0-36.313-16.191-36.313-36.094s16.29-36.094 36.313-36.094 36.313 16.191 36.313 36.094-16.291 36.094-36.313 36.094z"/></g></svg>