<svg id="Capa_1" enable-background="new 0 0 512 512" height="512" viewBox="0 0 512 512" width="512" xmlns="http://www.w3.org/2000/svg"><g><g><g><path d="m206.681 217.227c-5.523 0-10-4.477-10-10v-12.414c0-5.523 4.477-10 10-10s10 4.477 10 10v12.414c0 5.523-4.477 10-10 10z"/></g><g><path d="m131.696 217.227c-5.523 0-10-4.477-10-10v-12.414c0-5.523 4.477-10 10-10s10 4.477 10 10v12.414c0 5.523-4.477 10-10 10z"/></g><path d="m338.377 297.255c0-20.161-12.05-37.81-30.122-45.329v-89.996c0-76.682-62.385-139.066-139.067-139.066-76.681 0-139.066 62.385-139.066 139.066v89.996c-18.072 7.519-30.122 25.168-30.122 45.329 0 27.073 22.012 49.1 49.079 49.127-8.778 10.136-14.095 23.347-14.095 37.777v94.978c0 5.523 4.477 10 10 10h78.999c5.523 0 10-4.477 10-10 0-5.522-4.477-10-10-10h-68.999v-84.978c0-20.83 16.946-37.776 37.776-37.776h11.454l29.033 42.196c1.679 2.44 4.354 4.011 7.303 4.288.313.029.625.044.936.044 2.623 0 5.156-1.032 7.038-2.896l10.666-10.566v32.87c0 5.522 4.477 10 10 10s10-4.478 10-10v-32.87l10.665 10.566c1.881 1.863 4.415 2.896 7.038 2.896.311 0 .624-.015.936-.044 2.949-.277 5.624-1.848 7.303-4.288l29.033-42.196h11.454c20.83 0 37.776 16.946 37.776 37.776v84.978h-68.998c-5.523 0-10 4.478-10 10 0 5.523 4.477 10 10 10h78.998c5.523 0 10-4.477 10-10v-94.978c0-14.43-5.317-27.641-14.095-37.777 27.065-.027 49.077-22.054 49.077-49.127zm-195.433 70.134-18.195-26.445 8.959-6.381 21.25 20.924zm43.88-74.229c-4.482 1.09-7.637 5.104-7.637 9.717v28.709l-9.998 9.845-9.998-9.845v-28.709c0-4.612-3.155-8.627-7.637-9.717-33.382-8.118-56.697-37.819-56.697-72.229v-45.763c18.369-.188 35.789-6.119 50.433-17.183 9.895-7.475 18.076-17.117 23.899-28.002 5.823 10.885 14.004 20.527 23.899 28.002 14.645 11.063 32.064 16.995 50.433 17.183v45.763c-.001 34.41-23.315 64.111-56.697 72.229zm8.609 74.229-12.014-11.902 21.25-20.924 8.959 6.381zm93.817-41.007h-61.591l-18.224-12.979c-3.071-2.187-7.018-2.415-10.249-.812v-2.193c38.253-12.746 64.334-48.475 64.334-89.467v-55.758c0-5.522-4.477-10-10-10h-9.099c-28.588 0-54.286-19.103-62.492-46.453-1.269-4.23-5.162-7.126-9.578-7.126h-6.326c-4.416 0-8.309 2.896-9.578 7.126-8.206 27.351-33.903 46.453-62.492 46.453h-9.099c-5.523 0-10 4.478-10 10v55.758c0 40.992 26.081 76.721 64.334 89.467v2.193c-3.23-1.603-7.177-1.375-10.249.812l-18.512 13.185c-.654-.135-1.331-.205-2.025-.205h-59.277c-16.061-.001-29.127-13.068-29.127-29.128 0-13.584 9.217-25.243 22.415-28.352 4.516-1.063 7.708-5.094 7.708-9.733v-97.24c0-65.653 53.413-119.066 119.066-119.066 65.654 0 119.067 53.413 119.067 119.066v97.24c0 4.64 3.191 8.67 7.707 9.733 13.197 3.108 22.415 14.768 22.415 28.352-.001 16.06-13.068 29.127-29.128 29.127z"/><path d="m483.814 328.913h-24.013v-21.325c0-5.522-4.477-10-10-10h-56.119c-5.523 0-10 4.478-10 10v21.325h-29.946c-15.542 0-28.186 12.693-28.186 28.296v103.632c0 15.603 12.644 28.296 28.186 28.296h130.079c15.542 0 28.186-12.693 28.186-28.296v-103.632c-.001-15.603-12.645-28.296-28.187-28.296zm-80.132-11.325h36.119v11.325h-36.119zm-58.133 39.621c0-4.574 3.672-8.296 8.186-8.296h130.079c4.514 0 8.186 3.722 8.186 8.296v18.142c0 18.361-14.081 33.469-31.931 34.936v-7.172c0-5.522-4.477-10-10-10s-10 4.478-10 10v7.289h-42.589v-7.289c0-5.522-4.477-10-10-10s-10 4.478-10 10v7.172c-17.85-1.467-31.931-16.575-31.931-34.936zm138.265 111.928h-130.079c-4.514 0-8.186-3.722-8.186-8.296v-42.988c8.781 7.27 19.845 11.852 31.931 12.478v5.806c0 5.523 4.477 10 10 10s10-4.477 10-10v-5.732h42.588v5.732c0 5.523 4.477 10 10 10s10-4.477 10-10v-5.806c12.087-.626 23.15-5.208 31.931-12.478v42.988c.001 4.574-3.671 8.296-8.185 8.296z"/><g><path d="m169.37 489.13c-4.302 0-8.193-2.843-9.51-6.935-1.29-4.007.137-8.527 3.511-11.054 3.293-2.466 7.875-2.643 11.352-.446 3.427 2.165 5.233 6.34 4.467 10.32-.896 4.657-5.074 8.115-9.82 8.115z"/></g></g></g></svg>